<svg width="20" height="21" viewBox="0 0 20 21" fill="none" xmlns="http://www.w3.org/2000/svg">
<path d="M14.1666 17.98V16.3133C14.1666 15.4293 13.8154 14.5814 13.1903 13.9563C12.5652 13.3312 11.7173 12.98 10.8333 12.98H4.16659C3.28253 12.98 2.43468 13.3312 1.80956 13.9563C1.18444 14.5814 0.833252 15.4293 0.833252 16.3133V17.98" stroke="white" stroke-width="1.66667" stroke-linecap="round" stroke-linejoin="round"/>
<path d="M7.50008 9.64665C9.34103 9.64665 10.8334 8.15426 10.8334 6.31331C10.8334 4.47236 9.34103 2.97998 7.50008 2.97998C5.65913 2.97998 4.16675 4.47236 4.16675 6.31331C4.16675 8.15426 5.65913 9.64665 7.50008 9.64665Z" stroke="white" stroke-width="1.66667" stroke-linecap="round" stroke-linejoin="round"/>
<path d="M19.1667 17.98V16.3133C19.1662 15.5748 18.9204 14.8573 18.4679 14.2736C18.0154 13.6899 17.3819 13.273 16.6667 13.0883" stroke="white" stroke-width="1.66667" stroke-linecap="round" stroke-linejoin="round"/>
<path d="M13.3333 3.08832C14.0503 3.2719 14.6858 3.6889 15.1396 4.27358C15.5935 4.85825 15.8398 5.57734 15.8398 6.31748C15.8398 7.05763 15.5935 7.77672 15.1396 8.36139C14.6858 8.94607 14.0503 9.36307 13.3333 9.54665" stroke="white" stroke-width="1.66667" stroke-linecap="round" stroke-linejoin="round"/>
</svg>
